<svg width="50" height="50" viewBox="0 0 20 20" fill="none" xmlns="http://www.w3.org/2000/svg">
<g clip-path="url(#clip0_12_293)">
<rect width="20" height="20" rx="10" fill="#308FFF"/>
<rect x="5" y="-3" width="20" height="20" rx="10" fill="#111111"/>
<g clip-path="url(#clip1_12_293)">
<path d="M10.5212 13.0767L11.4915 15.7424C11.5733 15.9654 11.5832 16.2084 11.5196 16.4373C11.4561 16.6661 11.3223 16.8692 11.1372 17.0181L10.5148 17.5151C9.76393 18.1142 8.64623 17.793 8.31472 16.8822C8.22775 16.6453 8.21731 16.3871 8.28487 16.144C8.35243 15.9008 8.49459 15.685 8.6913 15.527L10.166 14.3497C10.351 14.2009 10.4847 13.9979 10.5483 13.7691C10.6119 13.5403 10.6021 13.2974 10.5204 13.0744L7.49946 4.77444C7.45605 4.65637 7.45314 4.52722 7.49118 4.40731C7.52922 4.2874 7.60604 4.18355 7.70957 4.11209L10.9533 1.87867C10.9798 1.8604 11.0102 1.84844 11.042 1.84371C11.0739 1.83897 11.1064 1.8416 11.1371 1.85138C11.1678 1.86116 11.1958 1.87783 11.219 1.90012C11.2423 1.92242 11.2601 1.94973 11.2712 1.97998L11.9657 3.88815C12.0092 4.00655 12.0119 4.13607 11.9735 4.25622C11.9351 4.37638 11.8578 4.4803 11.7537 4.55155L9.00439 6.41757C8.79612 6.56007 8.64135 6.76798 8.56458 7.00836C8.48781 7.24875 8.49343 7.50788 8.58055 7.74472L9.05418 9.04601" stroke="#EEEEEE" stroke-linecap="round" stroke-linejoin="round"/>
</g>
</g>
<defs>
<clipPath id="clip0_12_293">
<rect width="20" height="20" rx="10" fill="white"/>
</clipPath>
<clipPath id="clip1_12_293">
<rect width="18" height="18" fill="white" transform="translate(-1.5354 4.62091) rotate(-20)"/>
</clipPath>
</defs>
</svg>
